<?xml version="1.0" encoding="utf-8"?>
<!-- Generator: Adobe Illustrator 17.0.2, SVG Export Plug-In . SVG Version: 6.00 Build 0)  -->
<!DOCTYPE svg PUBLIC "-//W3C//DTD SVG 1.1//EN" "http://www.w3.org/Graphics/SVG/1.1/DTD/svg11.dtd">
<svg version="1.1" id="Capa_1" xmlns="http://www.w3.org/2000/svg" xmlns:xlink="http://www.w3.org/1999/xlink" x="0px" y="0px"
	 width="191.588px" height="69.552px" viewBox="0 0 191.588 69.552" enable-background="new 0 0 191.588 69.552"
	 xml:space="preserve">
<g>
	<path d="M35.177,29.239V18.198c0-1.771-0.113-3.391-1.206-3.391c-1.055,0-2.072,0.752-2.751,3.316v11.116h-9.684V18.198
		c0-1.771-0.075-3.391-1.206-3.391c-0.98,0-2.072,0.752-2.75,3.316v11.116H7.933V8.739h9.647v4.408
		c1.356-2.449,3.956-4.823,7.687-4.823c2.977,0,5.162,1.923,5.765,4.862c1.357-2.487,3.994-4.862,7.838-4.862
		c3.542,0,5.954,2.902,5.954,6.783v14.132H35.177z"/>
	<path d="M65.935,29.691c-2.035,0-4.371-1.056-5.313-3.579c-0.904,2.148-3.844,3.579-6.519,3.579c-4.183,0-7.537-1.885-7.537-5.389
		c0-4.446,5.501-6.406,13.076-6.595V14.73c0-0.565-0.603-1.017-1.318-1.017c-0.754,0-1.357,0.452-1.357,1.017v1.771h-8.705
		c-0.15-0.64-0.226-1.206-0.226-1.846c0-4.031,4.485-6.331,10.589-6.331c6.896,0,10.702,3.166,10.702,6.783v8.366
		c0,1.469,0.829,1.696,1.922,0.867v3.316C70.043,28.975,67.97,29.691,65.935,29.691z M59.642,20.496
		c-2.186,0.227-3.241,1.508-3.241,2.789c0,0.904,0.64,1.469,1.62,1.469c0.942,0,1.62-0.677,1.62-1.506V20.496z"/>
	<path d="M82.333,29.691c-4.333,0-7.762-2.562-7.762-7.122V14.58h-3.166V8.739h3.542l2.11-5.727h7.574v5.727h4.861v5.841h-4.861
		v5.841c0,2.864,3.504,2.939,4.861,1.885v5.35C88.287,28.975,84.368,29.691,82.333,29.691z"/>
	<path d="M115.122,19.819h-14.056v2.035c0,1.318,0.49,2.335,1.733,2.335c1.244,0,1.734-1.017,1.734-2.335v-0.49l10.098,1.017
		c-1.544,4.597-5.916,7.31-11.832,7.31c-7.197,0-12.36-3.919-12.36-10.551c0-6.595,5.163-10.816,12.36-10.816
		c7.16,0,12.36,4.221,12.36,10.816C115.159,19.29,115.122,19.667,115.122,19.819z M104.532,16.163c0-1.319-0.49-2.337-1.734-2.337
		c-1.243,0-1.733,1.017-1.733,2.337v0.791h3.467V16.163z"/>
	<path d="M128.467,29.654c-7.159,0.037-12.359-3.883-12.359-10.514c0-6.595,5.2-10.816,12.359-10.816
		c7.16,0,12.36,4.221,12.397,10.816C140.865,25.735,135.664,29.654,128.467,29.654z M130.202,16.201c0-1.319-0.49-2.337-1.734-2.375
		c-1.243,0-1.733,1.017-1.733,2.375v5.689c0,1.319,0.49,2.337,1.733,2.337c1.244,0,1.734-1.017,1.734-2.337V16.201z"/>
</g>
<g>
	<path d="M24.023,58.337c-2.262,0-4.522-1.017-6.029-2.825l-2.45,2.373H7.933V30.189h10.061v9.609
		c1.507-1.81,3.768-2.827,6.029-2.827c5.124,0,8.516,4.071,8.516,10.702C32.539,54.267,29.148,58.337,24.023,58.337z M21.95,45.111
		c0-1.508-0.565-2.638-1.959-2.638c-1.433,0-1.997,1.131-1.997,2.638v5.087c0,1.508,0.565,2.675,1.997,2.675
		c1.394,0,1.959-1.168,1.959-2.675V45.111z"/>
	<path d="M48.485,57.885v-4.371c-1.357,2.45-4.145,4.823-7.876,4.823c-3.542,0-6.179-2.902-6.179-6.783V37.385h10.099v11.079
		c0,1.808,0.075,3.391,1.206,3.391c0.98,0,2.072-0.754,2.751-3.316V37.385h10.061v20.499H48.485z"/>
	<path d="M61.567,35.426v-5.237h10.062v5.237H61.567z M61.567,57.885V37.385h10.062v20.499H61.567z"/>
	<path d="M84.255,58.337c-4.333,0-7.762-2.562-7.762-7.122v-7.989h-3.166v-5.841h3.542l2.11-5.727h7.574v5.727h4.861v5.841h-4.861
		v5.841c0,2.864,3.504,2.939,4.861,1.885v5.35C90.209,57.621,86.29,58.337,84.255,58.337z"/>
	<path d="M114.557,46.09h-7.914c0-1.771-0.302-3.166-1.168-3.166c-0.98,0-1.507,0.377-2.11,2.675v12.285H93.304V37.385h9.647v4.033
		c0.904-2.412,3.391-4.448,5.802-4.448c4.183,0,6.104,2.186,6.104,5.879C114.857,43.678,114.745,45.111,114.557,46.09z"/>
	<path d="M133.855,58.337c-2.035,0-4.371-1.056-5.314-3.579c-0.904,2.148-3.843,3.579-6.518,3.579c-4.183,0-7.537-1.885-7.537-5.389
		c0-4.446,5.501-6.406,13.076-6.595v-2.977c0-0.565-0.602-1.017-1.318-1.017c-0.754,0-1.357,0.452-1.357,1.017v1.771h-8.704
		c-0.15-0.64-0.227-1.206-0.227-1.846c0-4.031,4.485-6.331,10.589-6.331c6.896,0,10.701,3.166,10.701,6.783v8.366
		c0,1.469,0.83,1.696,1.923,0.867v3.316C137.963,57.621,135.891,58.337,133.855,58.337z M127.562,49.142
		c-2.186,0.227-3.241,1.508-3.241,2.789c0,0.904,0.64,1.469,1.62,1.469c0.942,0,1.621-0.677,1.621-1.506V49.142z"/>
	<path d="M159.448,39.722c1.092,1.131,1.62,2.6,1.62,4.258c0,4.031-3.277,7.008-10.212,7.008c-1.885,0-3.654-0.264-4.935-0.716
		c-0.415,0.302-0.642,0.64-0.642,1.092c0,0.64,0.527,1.206,1.546,1.206h8.743c5.614,0,8.214,2.186,8.214,6.369
		c0,4.558-3.994,8.93-11.606,8.93h-7.197c-4.033,0-5.954-1.96-5.954-4.258c0-1.583,1.092-3.202,2.864-3.693
		c-1.771-0.791-3.129-2.487-3.129-4.522c0-2.94,1.696-5.2,4.41-6.444c-1.695-1.243-2.487-3.166-2.487-4.974
		c0-3.994,3.277-7.01,10.174-7.01c2.073,0,3.806,0.265,5.239,0.754l1.016-2.675h7.273L159.448,39.722z M155.152,60.41
		c0,0-7.348,0-9.76,0c-0.49,0.113-0.754,0.414-0.754,0.979c0,0.716,0.602,1.092,1.319,1.092h8.78c1.092,0,1.469-0.64,1.469-1.243
		C156.206,60.787,155.944,60.41,155.152,60.41z M152.25,42.661c0-0.904-0.414-1.544-1.394-1.544c-0.942,0-1.319,0.64-1.319,1.544
		v2.638c0,0.904,0.377,1.544,1.319,1.544c0.981,0,1.394-0.64,1.394-1.544V42.661z"/>
	<path d="M174.94,58.3c-7.159,0.037-12.359-3.883-12.359-10.514c0-6.595,5.2-10.816,12.359-10.816c7.16,0,12.36,4.221,12.397,10.816
		C187.338,54.381,182.137,58.3,174.94,58.3z M176.675,44.847c0-1.319-0.49-2.337-1.734-2.375c-1.243,0-1.733,1.017-1.733,2.375
		v5.689c0,1.319,0.49,2.337,1.733,2.337c1.244,0,1.734-1.017,1.734-2.337V44.847z"/>
</g>
</svg>
